<svg width="161" height="36" viewBox="0 0 161 36" fill="none" xmlns="http://www.w3.org/2000/svg">
<path fill-rule="evenodd" clip-rule="evenodd" d="M17 9C17 4.02944 21.0294 0 26 0H135C139.971 0 144 4.02944 144 9V17.9956C144 17.998 144.002 18 144.004 18C144.007 18 144.009 18.0021 144.009 18.0046C144.003 18.1898 144 18.3758 144 18.5625C144 28.0033 151.558 35.6918 160.996 35.991C160.998 35.991 161 35.993 161 35.9955C161 35.998 160.998 36 160.995 36H144H17H0.00452175C0.00202446 36 0 35.998 0 35.9955C0 35.993 0.00196166 35.991 0.00440238 35.991C9.43916 35.6918 16.9956 28.0077 17 18.5707L17 18.5625L17 18.5543C16.9999 18.3704 16.997 18.1871 16.9912 18.0046C16.9911 18.0021 16.9931 18 16.9956 18C16.998 18 17 17.998 17 17.9956L17 9Z" fill="#262E41"/>
</svg>
