<svg width="27" height="27" viewBox="0 0 27 27" fill="none" xmlns="http://www.w3.org/2000/svg">
<mask id="mask0_86_563" style="mask-type:alpha" maskUnits="userSpaceOnUse" x="0" y="0" width="27" height="27">
<rect width="26.9815" height="26.7658" fill="#D9D9D9"/>
</mask>
<g mask="url(#mask0_86_563)">
<path d="M13.4899 13.3829C14.1082 13.3829 14.6376 13.1645 15.0779 12.7277C15.5182 12.2909 15.7384 11.7658 15.7384 11.1524C15.7384 10.539 15.5182 10.0139 15.0779 9.57712C14.6376 9.14032 14.1082 8.92192 13.4899 8.92192C12.8716 8.92192 12.3423 9.14032 11.9019 9.57712C11.4616 10.0139 11.2415 10.539 11.2415 11.1524C11.2415 11.7658 11.4616 12.2909 11.9019 12.7277C12.3423 13.1645 12.8716 13.3829 13.4899 13.3829ZM13.4899 21.5799C15.7759 19.4981 17.4716 17.6069 18.5771 15.9061C19.6825 14.2054 20.2353 12.6952 20.2353 11.3754C20.2353 9.34943 19.5842 7.6905 18.2819 6.39868C16.9797 5.10686 15.3824 4.46095 13.4899 4.46095C11.5975 4.46095 10.0001 5.10686 8.6979 6.39868C7.39567 7.6905 6.74455 9.34943 6.74455 11.3754C6.74455 12.6952 7.2973 14.2054 8.40279 15.9061C9.50828 17.6069 11.204 19.4981 13.4899 21.5799ZM13.4899 24.5353C10.4732 21.9888 8.2201 19.6236 6.7305 17.4396C5.2409 15.2556 4.49609 13.2342 4.49609 11.3754C4.49609 8.58734 5.40016 6.36616 7.2083 4.71188C9.01643 3.05761 11.1103 2.23047 13.4899 2.23047C15.8695 2.23047 17.9634 3.05761 19.7715 4.71188C21.5797 6.36616 22.4837 8.58734 22.4837 11.3754C22.4837 13.2342 21.7389 15.2556 20.2493 17.4396C18.7597 19.6236 16.5066 21.9888 13.4899 24.5353Z" fill="#340732"/>
</g>
</svg>
