<?xml version="1.0" encoding="UTF-8"?>
<svg id="Layer_1" xmlns="http://www.w3.org/2000/svg" viewBox="0 0 439.84 540.64">
  <defs>
    <style>
      .cls-1 {
        fill: #d38adf;
      }

      .cls-2 {
        fill: #7a4e81;
      }

      .cls-3 {
        fill: #794e80;
      }

      .cls-4 {
        fill: #d48ae0;
      }
    </style>
  </defs>
  <path class="cls-2" d="M68.75,357.62c-4.57-17.72-8.9-35.12-13.4-52.47-5.91-22.79-11.98-45.53-17.92-68.31-9.5-36.45-18.95-72.91-28.38-109.38-.48-1.86-.51-3.85-.88-6.85,3.48,1.01,6.21,1.61,8.79,2.59,30.22,11.4,61.32,19.76,92.9,26.24,14.41,2.96,29.1,4.57,43.69,6.65,3.09.44,3.27,1.8,2.63,4.41-1.25,5.15-3.15,10.41-3,15.57.23,7.76,2.69,15.2,7.05,21.89,8.16,12.53,19.95,20.87,32.51,28.27,11.15,6.57,22.75,12.42,33.64,19.4,9.16,5.87,17.21,13.32,21.6,23.68,6.06,14.33,2.29,27.57-5.46,40.01-8,12.84-18.78,23.25-30.09,33.16-10.43,9.14-20.93,18.21-27.53,30.85-8.87,16.97-6.55,33.05,2.99,48.85,7.39,12.24,18.44,21.09,28.28,31.07,6.57,6.65,11.4,14.5,13.22,23.65,2.51,12.65,1.92,25.35-3.4,37.26-3.52,7.89-8.13,15.29-12.17,22.96-1.46,2.76-3.52,3.59-6.63,3.52-23.59-.49-46.58-4.67-69.22-10.98-7.91-2.2-15.71-4.81-23.44-7.58-1.58-.57-3.36-2.47-3.8-4.09-6.49-24.04-12.81-48.14-19.1-72.23-7.33-28.07-14.59-56.16-21.87-84.24-.31-1.18-.57-2.36-1.02-3.89Z"/>
  <path class="cls-4" d="M230.03,375.88c9.62-9.07,19.41-17.54,28.35-26.81,17.21-17.86,29.72-38.48,34.24-63.28,5.99-32.83-6.97-58.34-36.55-73.77-13.81-7.2-27.37-14.98-40.46-23.41-7.86-5.07-14.56-11.93-15.71-22.19-.18-1.6-.03-3.24-.03-5.24,79.86,2.48,156.47-11.25,231.33-39.53-2.15,8.48-4.13,16.42-6.19,24.33-19.24,73.87-38.51,147.73-57.75,221.6-12.96,49.78-25.87,99.57-38.92,149.33-.39,1.5-1.78,3.39-3.15,3.9-22.55,8.46-45.84,14.03-69.71,17.13-.44.06-.9-.08-2.15-.2.93-1.65,1.64-3.02,2.46-4.32,10.57-16.79,16.32-34.84,14.6-54.91-1.4-16.26-7.82-30.48-18.09-42.88-6.75-8.15-14.31-15.62-21.51-23.39-.42-.45-.81-.92-1.18-1.41-9.97-13.24-9.92-21.51.4-34.94Z"/>
  <path class="cls-3" d="M196.38,61.04c11.77,6.16,23.34,11.99,34.58,18.4,4.03,2.3,7.4,5.85,10.85,9.07,4.71,4.39,5.39,14.84-2.13,19.41-9.84,5.98-20.65,8.95-31.55,11.65-11.49,2.84-23.09,5.28-34.76,7.26-4.24.72-8.8-.23-13.19-.68-11.04-1.15-22.13-2.08-33.09-3.78-13.19-2.05-26.34-4.53-39.4-7.31-20.74-4.41-40.96-10.55-59.89-20.28-7.97-4.1-15.3-9.09-21.4-15.98-8.48-9.57-8.98-24.12,1.11-33.78,4.91-4.7,10.43-9.06,16.35-12.36,23.66-13.18,49.49-20.16,75.92-25.09,12.98-2.42,26.05-4.37,39.11-6.36,2.68-.41,5.47-.06,8.2-.06.28.37.56.74.83,1.11-.94,1.11-1.71,2.46-2.86,3.28-3.83,2.74-8.15,4.89-11.61,8.01-4.53,4.08-4.54,7.4-1.17,12.55,4.68,7.14,11.48,11.98,18.94,15.44,14.77,6.85,29.87,12.98,45.16,19.51Z"/>
  <path class="cls-1" d="M398.1,25.39c11.7,4.83,22.52,10.43,31.85,18.65,8.13,7.16,11.76,16.46,8.94,24.33-2.53,7.08-7.73,12.11-13.56,16.47-16.07,12.04-34.71,18.49-53.71,23.87-27.74,7.86-56.1,12.51-84.82,15-2.13.18-4.25.5-6.38.71-.21.02-.45-.3-1.42-.99,1.7-.67,3-1.09,4.22-1.69,6.15-2.99,12.66-5.45,18.33-9.19,9.16-6.05,10.78-16.42,3.43-24.55-5.36-5.93-11.87-11.11-18.63-15.44-16.53-10.59-34.95-17.28-53.01-24.78-11.07-4.6-21.89-10.18-32.02-16.6-10.97-6.95-10.27-13.64,2.06-18.1,12.27-4.44,25.16-7.24,37.9-10.27,23.69-5.64,47.25-1.5,70.8,1.55,23.53,3.05,46.7,7.79,69.33,15.02,5.52,1.76,10.92,3.89,16.68,6.02Z"/>
</svg>