<svg version="1.1" id="Layer_1" xmlns="http://www.w3.org/2000/svg" xmlns:xlink="http://www.w3.org/1999/xlink" x="0px" y="0px"
	 width="100%" viewBox="0 0 645 701" enable-background="new 0 0 645 701" xml:space="preserve">
<path fill="#000000" opacity="1.000000" stroke="none" 
	d="
M344.000000,702.000000 
	C229.333328,702.000000 115.166664,702.000000 1.000000,702.000000 
	C1.000000,468.333344 1.000000,234.666672 1.000000,1.000000 
	C216.000000,1.000000 431.000000,1.000000 646.000000,1.000000 
	C646.000000,234.666672 646.000000,468.333344 646.000000,702.000000 
	C545.500000,702.000000 445.000000,702.000000 344.000000,702.000000 
M157.744156,452.927216 
	C158.051315,454.207520 158.338104,455.493134 158.668625,456.767365 
	C166.561081,487.195160 174.425827,517.630249 182.364441,548.045959 
	C189.179688,574.157593 196.026230,600.261475 203.063293,626.313599 
	C203.538696,628.073669 205.460037,630.135864 207.176819,630.750488 
	C215.549805,633.748108 224.006485,636.571716 232.572083,638.960022 
	C257.103638,645.800171 282.019775,650.322449 307.577087,650.855347 
	C310.951019,650.925720 313.183655,650.028442 314.760651,647.037476 
	C319.139435,638.732971 324.137146,630.713440 327.952637,622.162964 
	C333.713348,609.253357 334.349762,595.487793 331.634521,581.786194 
	C329.670654,571.876160 324.430786,563.366943 317.315094,556.160156 
	C306.644318,545.352905 294.676636,535.766174 286.667542,522.500122 
	C276.329254,505.375824 273.815796,487.955658 283.423492,469.570343 
	C290.581726,455.872375 301.956848,446.050964 313.257019,436.143860 
	C325.508759,425.402405 337.193756,414.129700 345.860443,400.214355 
	C354.251923,386.740906 358.338837,372.384705 351.773346,356.862671 
	C347.025085,345.636902 338.296814,337.565765 328.372498,331.203217 
	C316.578613,323.642151 304.007843,317.304108 291.924530,310.180359 
	C278.318634,302.158966 265.549713,293.119812 256.704285,279.543549 
	C251.980865,272.293884 249.312912,264.231873 249.060974,255.827698 
	C248.893326,250.235092 250.950363,244.534958 252.306503,238.954605 
	C252.994278,236.124512 252.800186,234.654785 249.456253,234.178513 
	C233.652802,231.927658 217.734329,230.179733 202.119080,226.974899 
	C167.900024,219.951920 134.198486,210.898880 101.454422,198.544739 
	C98.655472,197.488708 95.703270,196.838867 91.930725,195.740860 
	C92.333031,198.996399 92.361122,201.144470 92.883247,203.164856 
	C103.095215,242.680786 113.339882,282.188324 123.631516,321.683563 
	C130.063599,346.367340 136.646362,371.011993 143.044937,395.704376 
	C147.916672,414.504608 152.605026,433.352386 157.744156,452.927216 
M332.069061,472.604279 
	C321.123016,486.893494 321.074402,495.854645 331.872314,510.204498 
	C332.272278,510.735992 332.702240,511.248535 333.154022,511.736847 
	C340.950134,520.163025 349.149139,528.254822 356.459747,537.082642 
	C367.581238,550.512268 374.537994,565.919861 376.055786,583.539185 
	C377.929260,605.287170 371.693573,624.842773 360.241089,643.033691 
	C359.352661,644.444824 358.585144,645.932007 357.572174,647.717468 
	C358.924530,647.852600 359.427673,647.998657 359.903839,647.936768 
	C385.776855,644.573425 411.005280,638.538513 435.441559,629.372925 
	C436.925232,628.816406 438.423004,626.774658 438.850220,625.145081 
	C452.984833,571.230713 466.971313,517.277527 481.017426,463.339935 
	C501.861145,383.299072 522.738281,303.266937 543.586914,223.227402 
	C545.821228,214.649689 547.960388,206.047226 550.294922,196.861343 
	C469.184296,227.506073 386.170929,242.385971 299.642975,239.697678 
	C299.642975,241.870407 299.475708,243.645340 299.670166,245.379700 
	C300.916748,256.496735 308.171417,263.935944 316.693054,269.425812 
	C330.872375,278.560455 345.571075,286.986877 360.530762,294.791992 
	C392.580109,311.513489 406.615875,339.159790 400.129913,374.726837 
	C395.231018,401.590637 381.675537,423.936066 363.028198,443.287506 
	C353.341156,453.340271 342.737274,462.509552 332.069061,472.604279 
M295.490326,131.087463 
	C279.279144,124.124329 262.919037,117.482338 246.919144,110.063538 
	C238.830963,106.313225 231.457870,101.067497 226.392059,93.329063 
	C222.741501,87.752495 222.756882,84.156631 227.664825,79.732788 
	C231.415329,76.352219 236.097153,74.021042 240.242569,71.052521 
	C241.487564,70.160965 242.322372,68.696587 243.345093,67.494621 
	C243.044159,67.093506 242.743225,66.692398 242.442291,66.291283 
	C239.476044,66.291283 236.452209,65.913399 233.553329,66.355324 
	C219.406250,68.511986 205.242508,70.619255 191.177490,73.241913 
	C162.546310,78.580696 134.559113,86.146179 108.919983,100.427643 
	C102.506027,104.000336 96.526299,108.723038 91.209328,113.817245 
	C80.280708,124.287964 80.826569,140.051147 90.011162,150.421249 
	C96.624802,157.888550 104.564232,163.299149 113.199463,167.740845 
	C133.707626,178.289597 155.618530,184.944702 178.086914,189.719345 
	C192.240433,192.727051 206.480194,195.417892 220.776611,197.636414 
	C232.655884,199.479843 244.667404,200.492935 256.634552,201.737198 
	C261.388916,202.231537 266.334503,203.258301 270.927429,202.478470 
	C283.564178,200.332947 296.143585,197.696152 308.588196,194.617157 
	C320.403229,191.693924 332.115143,188.476135 342.774902,181.995880 
	C350.920074,177.044281 350.181427,165.721008 345.079468,160.962280 
	C341.342346,157.476578 337.695770,153.626740 333.326355,151.136887 
	C321.147461,144.196945 308.613281,137.880524 295.490326,131.087463 
M514.087769,92.372551 
	C508.179230,90.251144 502.327942,87.950676 496.352142,86.039642 
	C471.841980,78.201439 446.734619,73.067123 421.236298,69.765076 
	C395.722839,66.461052 370.193451,61.980583 344.524689,68.089783 
	C330.724365,71.374283 316.753387,74.412384 303.458862,79.219528 
	C290.095947,84.051407 289.339417,91.293770 301.227203,98.829666 
	C312.196228,105.783165 323.920471,111.826210 335.917755,116.813103 
	C355.477325,124.943390 375.441528,132.196579 393.351868,143.668091 
	C400.674286,148.358047 407.731720,153.965164 413.540588,160.392410 
	C421.508484,169.208527 419.746277,180.441727 409.822906,186.997803 
	C403.687653,191.051163 396.629028,193.711395 389.964844,196.955719 
	C388.641815,197.599808 387.227295,198.055939 385.387939,198.783463 
	C386.442871,199.537186 386.702911,199.880844 386.927490,199.859085 
	C389.234741,199.635345 391.531219,199.294296 393.840149,199.094788 
	C424.957214,196.405930 455.684326,191.367508 485.741882,182.847061 
	C506.321411,177.013336 526.522034,170.019958 543.933105,156.978729 
	C550.242004,152.253265 555.880798,146.805908 558.620850,139.134094 
	C561.666870,130.605682 557.742249,120.532127 548.929688,112.773880 
	C538.817017,103.871056 527.098938,97.804245 514.087769,92.372551 
z"/>
<path fill="#7A4E81" opacity="1.000000" stroke="none" 
	d="
M157.559570,452.553101 
	C152.605026,433.352386 147.916672,414.504608 143.044937,395.704376 
	C136.646362,371.011993 130.063599,346.367340 123.631516,321.683563 
	C113.339882,282.188324 103.095215,242.680786 92.883247,203.164856 
	C92.361122,201.144470 92.333031,198.996399 91.930725,195.740860 
	C95.703270,196.838867 98.655472,197.488708 101.454422,198.544739 
	C134.198486,210.898880 167.900024,219.951920 202.119080,226.974899 
	C217.734329,230.179733 233.652802,231.927658 249.456253,234.178513 
	C252.800186,234.654785 252.994278,236.124512 252.306503,238.954605 
	C250.950363,244.534958 248.893326,250.235092 249.060974,255.827698 
	C249.312912,264.231873 251.980865,272.293884 256.704285,279.543549 
	C265.549713,293.119812 278.318634,302.158966 291.924530,310.180359 
	C304.007843,317.304108 316.578613,323.642151 328.372498,331.203217 
	C338.296814,337.565765 347.025085,345.636902 351.773346,356.862671 
	C358.338837,372.384705 354.251923,386.740906 345.860443,400.214355 
	C337.193756,414.129700 325.508759,425.402405 313.257019,436.143860 
	C301.956848,446.050964 290.581726,455.872375 283.423492,469.570343 
	C273.815796,487.955658 276.329254,505.375824 286.667542,522.500122 
	C294.676636,535.766174 306.644318,545.352905 317.315094,556.160156 
	C324.430786,563.366943 329.670654,571.876160 331.634521,581.786194 
	C334.349762,595.487793 333.713348,609.253357 327.952637,622.162964 
	C324.137146,630.713440 319.139435,638.732971 314.760651,647.037476 
	C313.183655,650.028442 310.951019,650.925720 307.577087,650.855347 
	C282.019775,650.322449 257.103638,645.800171 232.572083,638.960022 
	C224.006485,636.571716 215.549805,633.748108 207.176819,630.750488 
	C205.460037,630.135864 203.538696,628.073669 203.063293,626.313599 
	C196.026230,600.261475 189.179688,574.157593 182.364441,548.045959 
	C174.425827,517.630249 166.561081,487.195160 158.668625,456.767365 
	C158.338104,455.493134 158.051315,454.207520 157.559570,452.553101 
z"/>
<path fill="#D48AE0" opacity="1.000000" stroke="none" 
	d="
M332.308289,472.341095 
	C342.737274,462.509552 353.341156,453.340271 363.028198,443.287506 
	C381.675537,423.936066 395.231018,401.590637 400.129913,374.726837 
	C406.615875,339.159790 392.580109,311.513489 360.530762,294.791992 
	C345.571075,286.986877 330.872375,278.560455 316.693054,269.425812 
	C308.171417,263.935944 300.916748,256.496735 299.670166,245.379700 
	C299.475708,243.645340 299.642975,241.870407 299.642975,239.697678 
	C386.170929,242.385971 469.184296,227.506073 550.294922,196.861343 
	C547.960388,206.047226 545.821228,214.649689 543.586914,223.227402 
	C522.738281,303.266937 501.861145,383.299072 481.017426,463.339935 
	C466.971313,517.277527 452.984833,571.230713 438.850220,625.145081 
	C438.423004,626.774658 436.925232,628.816406 435.441559,629.372925 
	C411.005280,638.538513 385.776855,644.573425 359.903839,647.936768 
	C359.427673,647.998657 358.924530,647.852600 357.572174,647.717468 
	C358.585144,645.932007 359.352661,644.444824 360.241089,643.033691 
	C371.693573,624.842773 377.929260,605.287170 376.055786,583.539185 
	C374.537994,565.919861 367.581238,550.512268 356.459747,537.082642 
	C349.149139,528.254822 340.950134,520.163025 333.154022,511.736847 
	C332.702240,511.248535 332.272278,510.735992 331.872314,510.204498 
	C321.074402,495.854645 321.123016,486.893494 332.308289,472.341095 
z"/>
<path fill="#794E80" opacity="1.000000" stroke="none" 
	d="
M295.854858,131.202667 
	C308.613281,137.880524 321.147461,144.196945 333.326355,151.136887 
	C337.695770,153.626740 341.342346,157.476578 345.079468,160.962280 
	C350.181427,165.721008 350.920074,177.044281 342.774902,181.995880 
	C332.115143,188.476135 320.403229,191.693924 308.588196,194.617157 
	C296.143585,197.696152 283.564178,200.332947 270.927429,202.478470 
	C266.334503,203.258301 261.388916,202.231537 256.634552,201.737198 
	C244.667404,200.492935 232.655884,199.479843 220.776611,197.636414 
	C206.480194,195.417892 192.240433,192.727051 178.086914,189.719345 
	C155.618530,184.944702 133.707626,178.289597 113.199463,167.740845 
	C104.564232,163.299149 96.624802,157.888550 90.011162,150.421249 
	C80.826569,140.051147 80.280708,124.287964 91.209328,113.817245 
	C96.526299,108.723038 102.506027,104.000336 108.919983,100.427643 
	C134.559113,86.146179 162.546310,78.580696 191.177490,73.241913 
	C205.242508,70.619255 219.406250,68.511986 233.553329,66.355324 
	C236.452209,65.913399 239.476044,66.291283 242.442291,66.291283 
	C242.743225,66.692398 243.044159,67.093506 243.345093,67.494621 
	C242.322372,68.696587 241.487564,70.160965 240.242569,71.052521 
	C236.097153,74.021042 231.415329,76.352219 227.664825,79.732788 
	C222.756882,84.156631 222.741501,87.752495 226.392059,93.329063 
	C231.457870,101.067497 238.830963,106.313225 246.919144,110.063538 
	C262.919037,117.482338 279.279144,124.124329 295.854858,131.202667 
z"/>
<path fill="#D38ADF" opacity="1.000000" stroke="none" 
	d="
M514.421143,92.567070 
	C527.098938,97.804245 538.817017,103.871056 548.929688,112.773880 
	C557.742249,120.532127 561.666870,130.605682 558.620850,139.134094 
	C555.880798,146.805908 550.242004,152.253265 543.933105,156.978729 
	C526.522034,170.019958 506.321411,177.013336 485.741882,182.847061 
	C455.684326,191.367508 424.957214,196.405930 393.840149,199.094788 
	C391.531219,199.294296 389.234741,199.635345 386.927490,199.859085 
	C386.702911,199.880844 386.442871,199.537186 385.387939,198.783463 
	C387.227295,198.055939 388.641815,197.599808 389.964844,196.955719 
	C396.629028,193.711395 403.687653,191.051163 409.822906,186.997803 
	C419.746277,180.441727 421.508484,169.208527 413.540588,160.392410 
	C407.731720,153.965164 400.674286,148.358047 393.351868,143.668091 
	C375.441528,132.196579 355.477325,124.943390 335.917755,116.813103 
	C323.920471,111.826210 312.196228,105.783165 301.227203,98.829666 
	C289.339417,91.293770 290.095947,84.051407 303.458862,79.219528 
	C316.753387,74.412384 330.724365,71.374283 344.524689,68.089783 
	C370.193451,61.980583 395.722839,66.461052 421.236298,69.765076 
	C446.734619,73.067123 471.841980,78.201439 496.352142,86.039642 
	C502.327942,87.950676 508.179230,90.251144 514.421143,92.567070 
z"/>
</svg>