<svg width="54" height="51" viewBox="0 0 54 51" fill="none" xmlns="http://www.w3.org/2000/svg">
<g filter="url(#filter0_d_110_528)">
<path d="M25.8773 2.31231C26.1767 1.39117 27.4799 1.39117 27.7793 2.31231L31.9807 15.2369C32.1146 15.6489 32.4985 15.9278 32.9317 15.9278H46.5267C47.4955 15.9278 47.8982 17.1676 47.1143 17.7369L36.1165 25.7237C35.7658 25.9783 35.6191 26.4298 35.7531 26.8419L39.954 39.7653C40.2535 40.6865 39.1992 41.4528 38.4154 40.8836L27.4159 32.8956C27.0655 32.6411 26.5911 32.6411 26.2407 32.8956L15.2411 40.8836C14.4573 41.4528 13.403 40.6865 13.7025 39.7653L17.9035 26.8419C18.0374 26.4298 17.8907 25.9783 17.5401 25.7237L6.54228 17.7369C5.75835 17.1676 6.16105 15.9278 7.12989 15.9278H20.7249C21.158 15.9278 21.542 15.6489 21.6759 15.2369L25.8773 2.31231Z" fill="#FFCA62"/>
<path d="M25.8773 2.31231C26.1767 1.39117 27.4799 1.39117 27.7793 2.31231L31.9807 15.2369C32.1146 15.6489 32.4985 15.9278 32.9317 15.9278H46.5267C47.4955 15.9278 47.8982 17.1676 47.1143 17.7369L36.1165 25.7237C35.7658 25.9783 35.6191 26.4298 35.7531 26.8419L39.954 39.7653C40.2535 40.6865 39.1992 41.4528 38.4154 40.8836L27.4159 32.8956C27.0655 32.6411 26.5911 32.6411 26.2407 32.8956L15.2411 40.8836C14.4573 41.4528 13.403 40.6865 13.7025 39.7653L17.9035 26.8419C18.0374 26.4298 17.8907 25.9783 17.5401 25.7237L6.54228 17.7369C5.75835 17.1676 6.16105 15.9278 7.12989 15.9278H20.7249C21.158 15.9278 21.542 15.6489 21.6759 15.2369L25.8773 2.31231Z" stroke="#FFF3DC" stroke-width="3"/>
</g>
<defs>
<filter id="filter0_d_110_528" x="0.625" y="0.121094" width="52.4062" height="50.4648" filterUnits="userSpaceOnUse" color-interpolation-filters="sRGB">
<feFlood flood-opacity="0" result="BackgroundImageFix"/>
<feColorMatrix in="SourceAlpha" type="matrix" values="0 0 0 0 0 0 0 0 0 0 0 0 0 0 0 0 0 0 127 0" result="hardAlpha"/>
<feOffset dy="4"/>
<feGaussianBlur stdDeviation="2"/>
<feComposite in2="hardAlpha" operator="out"/>
<feColorMatrix type="matrix" values="0 0 0 0 0 0 0 0 0 0 0 0 0 0 0 0 0 0 0.25 0"/>
<feBlend mode="normal" in2="BackgroundImageFix" result="effect1_dropShadow_110_528"/>
<feBlend mode="normal" in="SourceGraphic" in2="effect1_dropShadow_110_528" result="shape"/>
</filter>
</defs>
</svg>
