<svg width="53" height="51" viewBox="0 0 53 51" fill="none" xmlns="http://www.w3.org/2000/svg">
<g filter="url(#filter0_d_110_529)">
<path d="M25.7718 2.31231C26.0712 1.39117 27.3744 1.39117 27.6738 2.31231L31.8752 15.2369C32.0091 15.6489 32.393 15.9278 32.8262 15.9278H46.4212C47.39 15.9278 47.7927 17.1676 47.0088 17.7369L36.011 25.7237C35.6604 25.9783 35.5136 26.4298 35.6476 26.8419L39.8486 39.7653C40.148 40.6865 39.0938 41.4528 38.3099 40.8836L27.3104 32.8956C26.96 32.6411 26.4856 32.6411 26.1352 32.8956L15.1357 40.8836C14.3519 41.4528 13.2976 40.6865 13.597 39.7653L17.798 26.8419C17.932 26.4298 17.7852 25.9783 17.4346 25.7237L6.43681 17.7369C5.65288 17.1676 6.05559 15.9278 7.02442 15.9278H20.6194C21.0526 15.9278 21.4365 15.6489 21.5704 15.2369L25.7718 2.31231Z" fill="#AFAFAF"/>
<path d="M25.7718 2.31231C26.0712 1.39117 27.3744 1.39117 27.6738 2.31231L31.8752 15.2369C32.0091 15.6489 32.393 15.9278 32.8262 15.9278H46.4212C47.39 15.9278 47.7927 17.1676 47.0088 17.7369L36.011 25.7237C35.6604 25.9783 35.5136 26.4298 35.6476 26.8419L39.8486 39.7653C40.148 40.6865 39.0938 41.4528 38.3099 40.8836L27.3104 32.8956C26.96 32.6411 26.4856 32.6411 26.1352 32.8956L15.1357 40.8836C14.3519 41.4528 13.2976 40.6865 13.597 39.7653L17.798 26.8419C17.932 26.4298 17.7852 25.9783 17.4346 25.7237L6.43681 17.7369C5.65288 17.1676 6.05559 15.9278 7.02442 15.9278H20.6194C21.0526 15.9278 21.4365 15.6489 21.5704 15.2369L25.7718 2.31231Z" stroke="white" stroke-width="3"/>
</g>
<defs>
<filter id="filter0_d_110_529" x="0.519531" y="0.121094" width="52.4062" height="50.4648" filterUnits="userSpaceOnUse" color-interpolation-filters="sRGB">
<feFlood flood-opacity="0" result="BackgroundImageFix"/>
<feColorMatrix in="SourceAlpha" type="matrix" values="0 0 0 0 0 0 0 0 0 0 0 0 0 0 0 0 0 0 127 0" result="hardAlpha"/>
<feOffset dy="4"/>
<feGaussianBlur stdDeviation="2"/>
<feComposite in2="hardAlpha" operator="out"/>
<feColorMatrix type="matrix" values="0 0 0 0 0 0 0 0 0 0 0 0 0 0 0 0 0 0 0.25 0"/>
<feBlend mode="normal" in2="BackgroundImageFix" result="effect1_dropShadow_110_529"/>
<feBlend mode="normal" in="SourceGraphic" in2="effect1_dropShadow_110_529" result="shape"/>
</filter>
</defs>
</svg>
